<?xml version="1.0" encoding="utf-8"?>
<!-- Generator: Adobe Illustrator 23.0.0, SVG Export Plug-In . SVG Version: 6.00 Build 0)  -->
<svg version="1.1" id="Layer_1" xmlns="http://www.w3.org/2000/svg" xmlns:xlink="http://www.w3.org/1999/xlink" x="0px" y="0px"
	 viewBox="0 0 92 92" style="enable-background:new 0 0 92 92;" xml:space="preserve">
<style type="text/css">
	.st0{fill:#D1D2D6;}
	.st1{fill:#F5F6F7;}
</style>
<path class="st0" d="M0,0h92v92H0V0z"/>
<path class="st1" d="M24.2,76.9l7-4.3c1.4,2.4,2.6,4.4,5.6,4.4c2.8,0,4.6-1.1,4.6-5.4V42.2h8.6v29.5c0,9-5.2,13-12.9,13
	C30.2,84.8,26.2,81.2,24.2,76.9"/>
<path class="st1" d="M54.8,76l7-4.1c1.9,3,4.3,5.2,8.5,5.2c3.6,0,5.9-1.8,5.9-4.3c0-3-2.3-4-6.3-5.7l-2.2-0.9
	c-6.2-2.7-10.4-6-10.4-13c0-6.5,4.9-11.4,12.7-11.4c5.5,0,9.4,1.9,12.3,6.9L75.6,53c-1.5-2.7-3.1-3.7-5.6-3.7
	c-2.5,0-4.1,1.6-4.1,3.7c0,2.6,1.6,3.6,5.3,5.2l2.2,0.9c7.3,3.1,11.5,6.4,11.5,13.6c0,7.8-6.1,12-14.3,12C62.5,84.8,57.3,81,54.8,76
	"/>
</svg>
