<?xml version="1.0" encoding="utf-8"?>
<!-- Generator: Adobe Illustrator 23.0.0, SVG Export Plug-In . SVG Version: 6.00 Build 0)  -->
<svg version="1.1" id="Layer_1" xmlns="http://www.w3.org/2000/svg" xmlns:xlink="http://www.w3.org/1999/xlink" x="0px" y="0px"
	 viewBox="0 0 89.3 99.1" style="enable-background:new 0 0 89.3 99.1;" xml:space="preserve">
<style type="text/css">
	.st0{fill:#D1D2D6;}
</style>
<path class="st0" d="M86.6,76.3L46.4,99.1V81.4l25-13.8L86.6,76.3z M89.3,73.9V26.4l-14.7,8.5v30.5L89.3,73.9z M2.8,76.3l40.1,22.7
	V81.4l-25-13.8L2.8,76.3z M0,73.9V26.4l14.7,8.5v30.5L0,73.9z M1.7,23.3L42.9,0v17.1L16.5,31.6l-0.2,0.1L1.7,23.3z M87.6,23.3
	L46.4,0v17.1l26.4,14.5l0.2,0.1L87.6,23.3z"/>
<path class="st0" d="M42.9,77.3L18.2,63.8V36.9l24.7,14.3V77.3z M46.4,77.3l24.7-13.6V36.9L46.4,51.1V77.3z M19.9,33.8l24.8-13.6
	l24.8,13.6L44.7,48.1L19.9,33.8z"/>
</svg>
