<svg xmlns="http://www.w3.org/2000/svg" viewBox="0 0 92 92"><path d="M0 0h92v92H0V0z" fill="#d1d2d6"/><path d="M24.2 76.9l7-4.3c1.4 2.4 2.6 4.4 5.6 4.4 2.8 0 4.6-1.1 4.6-5.4V42.2H50v29.5c0 9-5.2 13-12.9 13-6.9.1-10.9-3.5-12.9-7.8m30.6-.9l7-4.1c1.9 3 4.3 5.2 8.5 5.2 3.6 0 5.9-1.8 5.9-4.3 0-3-2.3-4-6.3-5.7l-2.2-.9c-6.2-2.7-10.4-6-10.4-13 0-6.5 4.9-11.4 12.7-11.4 5.5 0 9.4 1.9 12.3 6.9L75.6 53c-1.5-2.7-3.1-3.7-5.6-3.7-2.5 0-4.1 1.6-4.1 3.7 0 2.6 1.6 3.6 5.3 5.2l2.2.9c7.3 3.1 11.5 6.4 11.5 13.6 0 7.8-6.1 12-14.3 12-8.1.1-13.3-3.7-15.8-8.7" fill="#f5f6f7"/></svg>